<svg height="496pt" viewBox="0 0 496.008 496" width="496pt" xmlns="http://www.w3.org/2000/svg"><path d="m448.007812 200.003906v16h-171.710937c-3.535156 0-7.074219.472656-10.519531 1.40625l-74.394532 20.289063c-7.75 2.121093-14.605468 6.464843-19.839843 12.5625l-37.511719 43.757812c-3.886719 4.511719-6.03125 10.296875-6.03125 17.007813 0 .328125.054688.648437.0625.976562h-.0625c-8.824219 0-16 7.175782-16 16v152c0 8.824219 7.175781 16 16 16h272c8.824219 0 16-7.175781 16-16v-152c0-8.824218-7.175781-16-16-16h-20.679688l16-16h52.6875v16h48v-112zm-48.007812 128v152h-272v-152h164.6875l-5.367188 5.367188c-4.65625 4.648437-7.320312 11.089844-7.320312 17.664062 0 13.769532 11.207031 24.96875 24.984375 24.96875 6.664063 0 12.9375-2.59375 17.65625-7.3125l40.679687-40.6875zm-91.304688-16h-83.335937c.71875-5.488281 1.640625-10.953125 2.976563-16.3125l1.921874-7.6875h48.886719c4.34375 0 8.617188 1.175782 12.34375 3.425782l23.609375 14.167968zm-95.886718-20.183594c-1.65625 6.632813-2.738282 13.398438-3.542969 20.183594h-15.503906l-1.074219-5.367187 11.601562-11.601563c2.605469-2.597656 5.734376-4.445312 9.109376-5.613281zm175.886718-11.816406-77.367187 77.367188c-1.695313 1.695312-3.960937 2.632812-6.359375 2.632812-4.945312 0-8.96875-4.023437-8.96875-8.96875 0-2.359375.960938-4.671875 2.632812-6.34375l37.375-37.375v-35.3125h-16v17.871094l-20.28125-12.167969c-6.222656-3.734375-13.335937-5.703125-20.582031-5.703125h-57.878906c-10.679687 0-20.730469 4.167969-28.289063 11.71875l-28.28125 28.28125h-20.503906c-.070312-.558594-.191406-1.046875-.191406-1.71875 0-2.144531.769531-4.210937 2.167969-5.839844l37.519531-43.769531c3.136719-3.664062 7.257812-6.265625 11.90625-7.535156l74.367188-20.289063c2.078124-.558593 4.207031-.839843 6.328124-.839843h171.710938v48h-59.304688zm91.3125 16h-16v-80h16zm0 0"/><path d="m104 88.003906h32c4.40625 0 8 3.585938 8 8h16c0-13.230468-10.769531-24-24-24h-8v-8h-16v8h-8c-13.230469 0-24 10.769532-24 24v8c0 13.230469 10.769531 24 24 24h32c4.40625 0 8 3.585938 8 8v8c0 4.417969-3.59375 8-8 8h-32c-4.40625 0-8-3.582031-8-8h-16c0 13.230469 10.769531 24 24 24h8v8h16v-8h8c13.230469 0 24-10.769531 24-24v-8c0-13.230468-10.769531-24-24-24h-32c-4.40625 0-8-3.582031-8-8v-8c0-4.414062 3.59375-8 8-8zm0 0"/><path d="m120 208.003906c20.246094 0 40.023438-7.0625 55.6875-19.878906l-10.136719-12.378906c-12.808593 10.480468-28.992187 16.257812-45.550781 16.257812-39.695312 0-72-32.296875-72-72 0-16.558594 5.777344-32.742187 16.257812-45.542968l-12.386718-10.144532c-12.816406 15.664063-19.871094 35.441406-19.871094 55.6875 0 48.519532 39.480469 88 88 88zm0 0"/><path d="m120 48.003906c39.695312 0 72 32.296875 72 72 0 16.558594-5.777344 32.742188-16.257812 45.542969l12.386718 10.144531c12.816406-15.664062 19.871094-35.4375 19.871094-55.6875 0-48.519531-39.480469-88-88-88-20.246094 0-40.023438 7.0625-55.6875 19.878906l10.136719 12.378907c12.808593-10.480469 28.992187-16.257813 45.550781-16.257813zm0 0"/><path d="m120 240.003906c66.167969 0 120-53.832031 120-120 0-66.167968-53.832031-119.99999975-120-119.99999975s-120 53.83203175-120 119.99999975c0 66.167969 53.832031 120 120 120zm0-224c57.34375 0 104 46.65625 104 104s-46.65625 104-104 104-104-46.65625-104-104 46.65625-104 104-104zm0 0"/><path d="m312 384.003906c-22.054688 0-40 17.945313-40 40 0 22.054688 17.945312 40 40 40 5.695312 0 11.089844-1.230468 16-3.390625 4.910156 2.160157 10.304688 3.390625 16 3.390625 22.054688 0 40-17.945312 40-40 0-22.054687-17.945312-40-40-40-5.695312 0-11.089844 1.230469-16 3.390625-4.910156-2.160156-10.304688-3.390625-16-3.390625zm24 40c0 7.0625-3.128906 13.359375-8 17.761719-4.871094-4.394531-8-10.699219-8-17.761719s3.128906-13.359375 8-17.761718c4.871094 4.402343 8 10.699218 8 17.761718zm-48 0c0-13.230468 10.769531-24 24-24 .0625 0 .128906.015625.191406.015625-5.070312 6.703125-8.191406 14.953125-8.191406 23.984375s3.121094 17.28125 8.191406 23.984375c-.0625 0-.128906.015625-.191406.015625-13.230469 0-24-10.769531-24-24zm80 0c0 13.230469-10.769531 24-24 24-.0625 0-.128906-.015625-.191406-.015625 5.070312-6.703125 8.191406-14.953125 8.191406-23.984375s-3.121094-17.28125-8.191406-23.984375c.0625 0 .128906-.015625.191406-.015625 13.230469 0 24 10.769532 24 24zm0 0"/><path d="m144 344.003906h16v16h-16zm0 0"/><path d="m176 344.003906h16v16h-16zm0 0"/><path d="m208 344.003906h16v16h-16zm0 0"/><path d="m144 408.003906h16v32h-16zm0 0"/><path d="m176 408.003906h16v32h-16zm0 0"/><path d="m208 408.003906h16v32h-16zm0 0"/><path d="m240 408.003906h16v32h-16zm0 0"/><path d="m73.945312 433.378906-11.3125-11.3125-14.632812 14.625v-20.6875h-16v20.6875l-14.632812-14.625-11.3125 11.3125 14.632812 14.625h-20.6875v16h20.6875l-14.632812 14.625 11.3125 11.3125 14.632812-14.625v20.6875h16v-20.6875l14.632812 14.625 11.3125-11.3125-14.632812-14.625h20.6875v-16h-20.6875zm-17.945312 16v13.25l-9.375 9.375h-13.25l-9.375-9.375v-13.25l9.375-9.375h13.25zm0 0"/><path d="m422.054688 142.628906 11.3125 11.3125 14.632812-14.625v20.6875h16v-20.6875l14.632812 14.625 11.3125-11.3125-14.632812-14.625h20.6875v-16h-20.6875l14.632812-14.625-11.3125-11.3125-14.632812 14.625v-20.6875h-16v20.6875l-14.632812-14.625-11.3125 11.3125 14.632812 14.625h-20.6875v16h20.6875zm17.945312-16v-13.25l9.375-9.375h13.25l9.375 9.375v13.25l-9.375 9.375h-13.25zm0 0"/><path d="m254.054688 62.628906 11.3125 11.3125 14.632812-14.625v20.6875h16v-20.6875l14.632812 14.625 11.3125-11.3125-14.632812-14.625h20.6875v-16h-20.6875l14.632812-14.625-11.3125-11.3125-14.632812 14.625v-20.68749975h-16v20.68749975l-14.632812-14.625-11.3125 11.3125 14.632812 14.625h-20.6875v16h20.6875zm17.945312-16v-13.25l9.375-9.375h13.25l9.375 9.375v13.25l-9.375 9.375h-13.25zm0 0"/></svg>